<mxfile host="app.diagrams.net" modified="2023-11-01T12:05:16.162Z" agent="Mozilla/5.0 (Windows NT 10.0; Win64; x64) AppleWebKit/537.36 (KHTML, like Gecko) Chrome/118.0.0.0 Safari/537.36" etag="6AF9HCvHevpktm4dSkM4" version="22.0.8" type="device">
  <diagram name="Seite-1" id="PktqksozIBV_OjRjiySh">
    <mxGraphModel dx="2257" dy="826" grid="1" gridSize="10" guides="1" tooltips="1" connect="1" arrows="1" fold="1" page="1" pageScale="1" pageWidth="827" pageHeight="1169" math="0" shadow="0">
      <root>
        <mxCell id="0" />
        <mxCell id="1" parent="0" />
        <mxCell id="rYEl8N98sDrvn4uuPUnO-86" value="CASE START UP" style="swimlane;whiteSpace=wrap;html=1;" parent="1" vertex="1">
          <mxGeometry x="-670" y="30" width="580" height="530" as="geometry">
            <mxRectangle x="50" y="40" width="140" height="30" as="alternateBounds" />
          </mxGeometry>
        </mxCell>
        <mxCell id="rYEl8N98sDrvn4uuPUnO-1" value="User with ble app" style="shape=umlActor;verticalLabelPosition=bottom;verticalAlign=top;outlineConnect=0;html=1;spacingBottom=0;spacingTop=-100;" parent="rYEl8N98sDrvn4uuPUnO-86" vertex="1">
          <mxGeometry x="80" y="50" width="40" height="80" as="geometry" />
        </mxCell>
        <mxCell id="rYEl8N98sDrvn4uuPUnO-2" value="BLE Transmitter" style="rounded=0;whiteSpace=wrap;html=1;" parent="rYEl8N98sDrvn4uuPUnO-86" vertex="1">
          <mxGeometry x="240" y="60" width="120" height="60" as="geometry" />
        </mxCell>
        <mxCell id="rYEl8N98sDrvn4uuPUnO-3" value="Sensor with TEDS" style="rounded=0;whiteSpace=wrap;html=1;" parent="rYEl8N98sDrvn4uuPUnO-86" vertex="1">
          <mxGeometry x="440" y="60" width="120" height="60" as="geometry" />
        </mxCell>
        <mxCell id="rYEl8N98sDrvn4uuPUnO-5" value="" style="endArrow=none;html=1;rounded=0;" parent="rYEl8N98sDrvn4uuPUnO-86" edge="1">
          <mxGeometry width="50" height="50" relative="1" as="geometry">
            <mxPoint x="100" y="510" as="sourcePoint" />
            <mxPoint x="99.71000000000004" y="130" as="targetPoint" />
          </mxGeometry>
        </mxCell>
        <mxCell id="rYEl8N98sDrvn4uuPUnO-6" value="" style="endArrow=none;html=1;rounded=0;" parent="rYEl8N98sDrvn4uuPUnO-86" source="rYEl8N98sDrvn4uuPUnO-9" edge="1">
          <mxGeometry width="50" height="50" relative="1" as="geometry">
            <mxPoint x="300" y="290" as="sourcePoint" />
            <mxPoint x="300" y="130" as="targetPoint" />
          </mxGeometry>
        </mxCell>
        <mxCell id="rYEl8N98sDrvn4uuPUnO-7" value="" style="endArrow=none;html=1;rounded=0;" parent="rYEl8N98sDrvn4uuPUnO-86" source="rYEl8N98sDrvn4uuPUnO-28" edge="1">
          <mxGeometry width="50" height="50" relative="1" as="geometry">
            <mxPoint x="500" y="490" as="sourcePoint" />
            <mxPoint x="499.71000000000004" y="130" as="targetPoint" />
          </mxGeometry>
        </mxCell>
        <mxCell id="rYEl8N98sDrvn4uuPUnO-8" value="" style="rounded=0;whiteSpace=wrap;html=1;" parent="rYEl8N98sDrvn4uuPUnO-86" vertex="1">
          <mxGeometry x="90" y="140" width="20" height="20" as="geometry" />
        </mxCell>
        <mxCell id="rYEl8N98sDrvn4uuPUnO-10" value="" style="endArrow=none;html=1;rounded=0;" parent="rYEl8N98sDrvn4uuPUnO-86" target="rYEl8N98sDrvn4uuPUnO-9" edge="1">
          <mxGeometry width="50" height="50" relative="1" as="geometry">
            <mxPoint x="300" y="510" as="sourcePoint" />
            <mxPoint x="300" y="130" as="targetPoint" />
          </mxGeometry>
        </mxCell>
        <mxCell id="rYEl8N98sDrvn4uuPUnO-9" value="" style="rounded=0;whiteSpace=wrap;html=1;" parent="rYEl8N98sDrvn4uuPUnO-86" vertex="1">
          <mxGeometry x="290" y="150" width="20" height="180" as="geometry" />
        </mxCell>
        <mxCell id="rYEl8N98sDrvn4uuPUnO-11" value="" style="endArrow=classic;html=1;rounded=0;exitX=1;exitY=0.5;exitDx=0;exitDy=0;entryX=0;entryY=0;entryDx=0;entryDy=0;" parent="rYEl8N98sDrvn4uuPUnO-86" source="rYEl8N98sDrvn4uuPUnO-8" target="rYEl8N98sDrvn4uuPUnO-9" edge="1">
          <mxGeometry width="50" height="50" relative="1" as="geometry">
            <mxPoint x="190" y="170" as="sourcePoint" />
            <mxPoint x="240" y="120" as="targetPoint" />
          </mxGeometry>
        </mxCell>
        <mxCell id="rYEl8N98sDrvn4uuPUnO-12" value="start transmitter" style="edgeLabel;html=1;align=center;verticalAlign=middle;resizable=0;points=[];labelBackgroundColor=none;" parent="rYEl8N98sDrvn4uuPUnO-11" vertex="1" connectable="0">
          <mxGeometry x="-0.373" y="-1" relative="1" as="geometry">
            <mxPoint x="33" y="-11" as="offset" />
          </mxGeometry>
        </mxCell>
        <mxCell id="rYEl8N98sDrvn4uuPUnO-15" value="" style="rounded=0;whiteSpace=wrap;html=1;" parent="rYEl8N98sDrvn4uuPUnO-86" vertex="1">
          <mxGeometry x="490" y="170" width="20" height="30" as="geometry" />
        </mxCell>
        <mxCell id="rYEl8N98sDrvn4uuPUnO-16" value="" style="endArrow=classic;html=1;rounded=0;exitX=1;exitY=0.5;exitDx=0;exitDy=0;entryX=0;entryY=0;entryDx=0;entryDy=0;" parent="rYEl8N98sDrvn4uuPUnO-86" edge="1">
          <mxGeometry width="50" height="50" relative="1" as="geometry">
            <mxPoint x="310" y="170" as="sourcePoint" />
            <mxPoint x="490" y="170" as="targetPoint" />
          </mxGeometry>
        </mxCell>
        <mxCell id="rYEl8N98sDrvn4uuPUnO-17" value="request calibration data" style="edgeLabel;html=1;align=center;verticalAlign=middle;resizable=0;points=[];labelBackgroundColor=none;" parent="rYEl8N98sDrvn4uuPUnO-16" vertex="1" connectable="0">
          <mxGeometry x="-0.373" y="-1" relative="1" as="geometry">
            <mxPoint x="33" y="-11" as="offset" />
          </mxGeometry>
        </mxCell>
        <mxCell id="rYEl8N98sDrvn4uuPUnO-18" value="" style="endArrow=classic;html=1;rounded=0;exitX=0;exitY=1;exitDx=0;exitDy=0;" parent="rYEl8N98sDrvn4uuPUnO-86" source="rYEl8N98sDrvn4uuPUnO-15" edge="1">
          <mxGeometry width="50" height="50" relative="1" as="geometry">
            <mxPoint x="480" y="200.00000000000006" as="sourcePoint" />
            <mxPoint x="310" y="200" as="targetPoint" />
          </mxGeometry>
        </mxCell>
        <mxCell id="rYEl8N98sDrvn4uuPUnO-19" value="transmit calibration data" style="edgeLabel;html=1;align=center;verticalAlign=middle;resizable=0;points=[];labelBackgroundColor=none;" parent="rYEl8N98sDrvn4uuPUnO-18" vertex="1" connectable="0">
          <mxGeometry x="-0.373" y="-1" relative="1" as="geometry">
            <mxPoint x="-33" y="-11" as="offset" />
          </mxGeometry>
        </mxCell>
        <mxCell id="rYEl8N98sDrvn4uuPUnO-20" style="edgeStyle=orthogonalEdgeStyle;rounded=0;orthogonalLoop=1;jettySize=auto;html=1;exitX=1;exitY=0.5;exitDx=0;exitDy=0;" parent="rYEl8N98sDrvn4uuPUnO-86" edge="1">
          <mxGeometry relative="1" as="geometry">
            <mxPoint x="310" y="310" as="sourcePoint" />
            <mxPoint x="310" y="330" as="targetPoint" />
            <Array as="points">
              <mxPoint x="430" y="310" />
              <mxPoint x="430" y="330" />
              <mxPoint x="310" y="330" />
            </Array>
          </mxGeometry>
        </mxCell>
        <mxCell id="rYEl8N98sDrvn4uuPUnO-21" value="init GATT server" style="edgeLabel;html=1;align=center;verticalAlign=middle;resizable=0;points=[];labelBackgroundColor=none;" parent="rYEl8N98sDrvn4uuPUnO-20" vertex="1" connectable="0">
          <mxGeometry x="-0.6708" y="-2" relative="1" as="geometry">
            <mxPoint x="17" y="-12" as="offset" />
          </mxGeometry>
        </mxCell>
        <mxCell id="rYEl8N98sDrvn4uuPUnO-22" value="loop" style="shape=umlFrame;whiteSpace=wrap;html=1;pointerEvents=0;width=50;height=30;" parent="rYEl8N98sDrvn4uuPUnO-86" vertex="1">
          <mxGeometry x="30" y="350" width="515" height="150" as="geometry" />
        </mxCell>
        <mxCell id="rYEl8N98sDrvn4uuPUnO-23" style="edgeStyle=orthogonalEdgeStyle;rounded=0;orthogonalLoop=1;jettySize=auto;html=1;exitX=1;exitY=0.5;exitDx=0;exitDy=0;" parent="rYEl8N98sDrvn4uuPUnO-86" edge="1">
          <mxGeometry relative="1" as="geometry">
            <mxPoint x="310" y="240" as="sourcePoint" />
            <mxPoint x="310" y="260" as="targetPoint" />
            <Array as="points">
              <mxPoint x="430" y="240" />
              <mxPoint x="430" y="260" />
              <mxPoint x="310" y="260" />
            </Array>
          </mxGeometry>
        </mxCell>
        <mxCell id="rYEl8N98sDrvn4uuPUnO-24" value="calc scale factors" style="edgeLabel;html=1;align=center;verticalAlign=middle;resizable=0;points=[];labelBackgroundColor=none;labelBorderColor=none;" parent="rYEl8N98sDrvn4uuPUnO-23" vertex="1" connectable="0">
          <mxGeometry x="-0.6708" y="-2" relative="1" as="geometry">
            <mxPoint x="17" y="-12" as="offset" />
          </mxGeometry>
        </mxCell>
        <mxCell id="rYEl8N98sDrvn4uuPUnO-25" value="" style="rounded=0;whiteSpace=wrap;html=1;" parent="rYEl8N98sDrvn4uuPUnO-86" vertex="1">
          <mxGeometry x="290" y="370" width="20" height="100" as="geometry" />
        </mxCell>
        <mxCell id="rYEl8N98sDrvn4uuPUnO-26" value="" style="endArrow=classic;html=1;rounded=0;exitX=1;exitY=0.5;exitDx=0;exitDy=0;entryX=0;entryY=0;entryDx=0;entryDy=0;" parent="rYEl8N98sDrvn4uuPUnO-86" edge="1">
          <mxGeometry width="50" height="50" relative="1" as="geometry">
            <mxPoint x="310" y="370" as="sourcePoint" />
            <mxPoint x="490" y="370" as="targetPoint" />
          </mxGeometry>
        </mxCell>
        <mxCell id="rYEl8N98sDrvn4uuPUnO-27" value="read current value [mV/V]" style="edgeLabel;html=1;align=center;verticalAlign=middle;resizable=0;points=[];labelBackgroundColor=none;" parent="rYEl8N98sDrvn4uuPUnO-26" vertex="1" connectable="0">
          <mxGeometry x="-0.373" y="-1" relative="1" as="geometry">
            <mxPoint x="33" y="-11" as="offset" />
          </mxGeometry>
        </mxCell>
        <mxCell id="rYEl8N98sDrvn4uuPUnO-29" value="" style="endArrow=none;html=1;rounded=0;" parent="rYEl8N98sDrvn4uuPUnO-86" target="rYEl8N98sDrvn4uuPUnO-28" edge="1">
          <mxGeometry width="50" height="50" relative="1" as="geometry">
            <mxPoint x="500" y="510" as="sourcePoint" />
            <mxPoint x="499.71000000000004" y="130" as="targetPoint" />
          </mxGeometry>
        </mxCell>
        <mxCell id="rYEl8N98sDrvn4uuPUnO-28" value="" style="rounded=0;whiteSpace=wrap;html=1;" parent="rYEl8N98sDrvn4uuPUnO-86" vertex="1">
          <mxGeometry x="490" y="370" width="20" height="30" as="geometry" />
        </mxCell>
        <mxCell id="rYEl8N98sDrvn4uuPUnO-30" value="" style="endArrow=classic;html=1;rounded=0;exitX=0;exitY=1;exitDx=0;exitDy=0;" parent="rYEl8N98sDrvn4uuPUnO-86" source="rYEl8N98sDrvn4uuPUnO-28" edge="1">
          <mxGeometry width="50" height="50" relative="1" as="geometry">
            <mxPoint x="470" y="400" as="sourcePoint" />
            <mxPoint x="310" y="400" as="targetPoint" />
          </mxGeometry>
        </mxCell>
        <mxCell id="rYEl8N98sDrvn4uuPUnO-31" value="current value [mV/V]" style="edgeLabel;html=1;align=center;verticalAlign=middle;resizable=0;points=[];labelBackgroundColor=none;" parent="rYEl8N98sDrvn4uuPUnO-30" vertex="1" connectable="0">
          <mxGeometry x="-0.373" y="-1" relative="1" as="geometry">
            <mxPoint x="-32" y="-9" as="offset" />
          </mxGeometry>
        </mxCell>
        <mxCell id="rYEl8N98sDrvn4uuPUnO-32" style="edgeStyle=orthogonalEdgeStyle;rounded=0;orthogonalLoop=1;jettySize=auto;html=1;exitX=1;exitY=0.5;exitDx=0;exitDy=0;" parent="rYEl8N98sDrvn4uuPUnO-86" edge="1">
          <mxGeometry relative="1" as="geometry">
            <mxPoint x="310" y="420" as="sourcePoint" />
            <mxPoint x="310" y="440" as="targetPoint" />
            <Array as="points">
              <mxPoint x="430" y="420" />
              <mxPoint x="430" y="440" />
              <mxPoint x="310" y="440" />
            </Array>
          </mxGeometry>
        </mxCell>
        <mxCell id="rYEl8N98sDrvn4uuPUnO-33" value="scale [mV/V] -&amp;gt; [kN]" style="edgeLabel;html=1;align=center;verticalAlign=middle;resizable=0;points=[];labelBackgroundColor=none;" parent="rYEl8N98sDrvn4uuPUnO-32" vertex="1" connectable="0">
          <mxGeometry x="-0.6708" y="-2" relative="1" as="geometry">
            <mxPoint x="17" y="-12" as="offset" />
          </mxGeometry>
        </mxCell>
        <mxCell id="rYEl8N98sDrvn4uuPUnO-35" value="" style="endArrow=none;html=1;rounded=0;" parent="rYEl8N98sDrvn4uuPUnO-86" target="rYEl8N98sDrvn4uuPUnO-34" edge="1">
          <mxGeometry width="50" height="50" relative="1" as="geometry">
            <mxPoint x="100" y="490" as="sourcePoint" />
            <mxPoint x="99.71000000000004" y="130" as="targetPoint" />
          </mxGeometry>
        </mxCell>
        <mxCell id="rYEl8N98sDrvn4uuPUnO-34" value="" style="rounded=0;whiteSpace=wrap;html=1;" parent="rYEl8N98sDrvn4uuPUnO-86" vertex="1">
          <mxGeometry x="90" y="470" width="20" height="20" as="geometry" />
        </mxCell>
        <mxCell id="rYEl8N98sDrvn4uuPUnO-37" value="" style="endArrow=classic;html=1;rounded=0;exitX=0;exitY=1;exitDx=0;exitDy=0;" parent="rYEl8N98sDrvn4uuPUnO-86" edge="1">
          <mxGeometry width="50" height="50" relative="1" as="geometry">
            <mxPoint x="290" y="470" as="sourcePoint" />
            <mxPoint x="110" y="470" as="targetPoint" />
          </mxGeometry>
        </mxCell>
        <mxCell id="rYEl8N98sDrvn4uuPUnO-38" value="notify" style="edgeLabel;html=1;align=center;verticalAlign=middle;resizable=0;points=[];labelBackgroundColor=none;" parent="rYEl8N98sDrvn4uuPUnO-37" vertex="1" connectable="0">
          <mxGeometry x="-0.373" y="-1" relative="1" as="geometry">
            <mxPoint x="-32" y="-9" as="offset" />
          </mxGeometry>
        </mxCell>
        <mxCell id="rYEl8N98sDrvn4uuPUnO-87" value="CASE SENSOR CHANGE AT RUNTIME" style="swimlane;whiteSpace=wrap;html=1;" parent="1" vertex="1">
          <mxGeometry x="-670" y="620" width="580" height="530" as="geometry">
            <mxRectangle x="50" y="40" width="140" height="30" as="alternateBounds" />
          </mxGeometry>
        </mxCell>
        <mxCell id="rYEl8N98sDrvn4uuPUnO-40" value="BLE Transmitter" style="rounded=0;whiteSpace=wrap;html=1;" parent="rYEl8N98sDrvn4uuPUnO-87" vertex="1">
          <mxGeometry x="232.5" y="50" width="120" height="60" as="geometry" />
        </mxCell>
        <mxCell id="rYEl8N98sDrvn4uuPUnO-41" value="Sensor with TEDS" style="rounded=0;whiteSpace=wrap;html=1;" parent="rYEl8N98sDrvn4uuPUnO-87" vertex="1">
          <mxGeometry x="432.5" y="50" width="120" height="60" as="geometry" />
        </mxCell>
        <mxCell id="rYEl8N98sDrvn4uuPUnO-42" value="" style="endArrow=none;html=1;rounded=0;" parent="rYEl8N98sDrvn4uuPUnO-87" edge="1">
          <mxGeometry width="50" height="50" relative="1" as="geometry">
            <mxPoint x="92.5" y="500" as="sourcePoint" />
            <mxPoint x="92.21000000000004" y="120" as="targetPoint" />
          </mxGeometry>
        </mxCell>
        <mxCell id="rYEl8N98sDrvn4uuPUnO-43" value="" style="endArrow=none;html=1;rounded=0;" parent="rYEl8N98sDrvn4uuPUnO-87" edge="1">
          <mxGeometry width="50" height="50" relative="1" as="geometry">
            <mxPoint x="292.5" y="140" as="sourcePoint" />
            <mxPoint x="292.5" y="120" as="targetPoint" />
          </mxGeometry>
        </mxCell>
        <mxCell id="rYEl8N98sDrvn4uuPUnO-44" value="" style="endArrow=none;html=1;rounded=0;" parent="rYEl8N98sDrvn4uuPUnO-87" source="rYEl8N98sDrvn4uuPUnO-64" edge="1">
          <mxGeometry width="50" height="50" relative="1" as="geometry">
            <mxPoint x="492.5" y="480" as="sourcePoint" />
            <mxPoint x="492.21000000000004" y="120" as="targetPoint" />
          </mxGeometry>
        </mxCell>
        <mxCell id="rYEl8N98sDrvn4uuPUnO-45" value="" style="rounded=0;whiteSpace=wrap;html=1;" parent="rYEl8N98sDrvn4uuPUnO-87" vertex="1">
          <mxGeometry x="82.5" y="130" width="20" height="60" as="geometry" />
        </mxCell>
        <mxCell id="rYEl8N98sDrvn4uuPUnO-46" value="" style="endArrow=none;html=1;rounded=0;" parent="rYEl8N98sDrvn4uuPUnO-87" source="rYEl8N98sDrvn4uuPUnO-73" edge="1">
          <mxGeometry width="50" height="50" relative="1" as="geometry">
            <mxPoint x="292.5" y="500" as="sourcePoint" />
            <mxPoint x="292.5" y="140" as="targetPoint" />
          </mxGeometry>
        </mxCell>
        <mxCell id="rYEl8N98sDrvn4uuPUnO-48" value="" style="endArrow=classic;html=1;rounded=0;exitX=1.117;exitY=0.178;exitDx=0;exitDy=0;exitPerimeter=0;" parent="rYEl8N98sDrvn4uuPUnO-87" source="rYEl8N98sDrvn4uuPUnO-45" edge="1">
          <mxGeometry width="50" height="50" relative="1" as="geometry">
            <mxPoint x="122.5" y="140" as="sourcePoint" />
            <mxPoint x="492.5" y="140" as="targetPoint" />
          </mxGeometry>
        </mxCell>
        <mxCell id="rYEl8N98sDrvn4uuPUnO-49" value="swop / unplug sensor(s) at runtime" style="edgeLabel;html=1;align=center;verticalAlign=middle;resizable=0;points=[];labelBackgroundColor=none;" parent="rYEl8N98sDrvn4uuPUnO-48" vertex="1" connectable="0">
          <mxGeometry x="-0.373" y="-1" relative="1" as="geometry">
            <mxPoint x="-22" y="-11" as="offset" />
          </mxGeometry>
        </mxCell>
        <mxCell id="rYEl8N98sDrvn4uuPUnO-50" value="" style="rounded=0;whiteSpace=wrap;html=1;" parent="rYEl8N98sDrvn4uuPUnO-87" vertex="1">
          <mxGeometry x="482.5" y="190" width="20" height="30" as="geometry" />
        </mxCell>
        <mxCell id="rYEl8N98sDrvn4uuPUnO-53" value="" style="endArrow=classic;html=1;rounded=0;exitX=0;exitY=1;exitDx=0;exitDy=0;" parent="rYEl8N98sDrvn4uuPUnO-87" source="rYEl8N98sDrvn4uuPUnO-50" edge="1">
          <mxGeometry width="50" height="50" relative="1" as="geometry">
            <mxPoint x="462.5" y="220" as="sourcePoint" />
            <mxPoint x="302.5" y="220" as="targetPoint" />
          </mxGeometry>
        </mxCell>
        <mxCell id="rYEl8N98sDrvn4uuPUnO-54" value="transmit calibration data" style="edgeLabel;html=1;align=center;verticalAlign=middle;resizable=0;points=[];labelBackgroundColor=none;" parent="rYEl8N98sDrvn4uuPUnO-53" vertex="1" connectable="0">
          <mxGeometry x="-0.373" y="-1" relative="1" as="geometry">
            <mxPoint x="-33" y="-9" as="offset" />
          </mxGeometry>
        </mxCell>
        <mxCell id="rYEl8N98sDrvn4uuPUnO-57" value="loop" style="shape=umlFrame;whiteSpace=wrap;html=1;pointerEvents=0;width=50;height=30;" parent="rYEl8N98sDrvn4uuPUnO-87" vertex="1">
          <mxGeometry x="22.5" y="340" width="515" height="150" as="geometry" />
        </mxCell>
        <mxCell id="rYEl8N98sDrvn4uuPUnO-58" style="edgeStyle=orthogonalEdgeStyle;rounded=0;orthogonalLoop=1;jettySize=auto;html=1;exitX=1;exitY=0.5;exitDx=0;exitDy=0;" parent="rYEl8N98sDrvn4uuPUnO-87" edge="1">
          <mxGeometry relative="1" as="geometry">
            <mxPoint x="302.5" y="250" as="sourcePoint" />
            <mxPoint x="302.5" y="270" as="targetPoint" />
            <Array as="points">
              <mxPoint x="422.5" y="250" />
              <mxPoint x="422.5" y="270" />
              <mxPoint x="302.5" y="270" />
            </Array>
          </mxGeometry>
        </mxCell>
        <mxCell id="rYEl8N98sDrvn4uuPUnO-59" value="calc scale factors" style="edgeLabel;html=1;align=center;verticalAlign=middle;resizable=0;points=[];labelBackgroundColor=none;" parent="rYEl8N98sDrvn4uuPUnO-58" vertex="1" connectable="0">
          <mxGeometry x="-0.6708" y="-2" relative="1" as="geometry">
            <mxPoint x="17" y="-12" as="offset" />
          </mxGeometry>
        </mxCell>
        <mxCell id="rYEl8N98sDrvn4uuPUnO-61" value="" style="endArrow=classic;html=1;rounded=0;exitX=1;exitY=0.5;exitDx=0;exitDy=0;entryX=0;entryY=0;entryDx=0;entryDy=0;" parent="rYEl8N98sDrvn4uuPUnO-87" edge="1">
          <mxGeometry width="50" height="50" relative="1" as="geometry">
            <mxPoint x="302.5" y="360" as="sourcePoint" />
            <mxPoint x="482.5" y="360" as="targetPoint" />
          </mxGeometry>
        </mxCell>
        <mxCell id="rYEl8N98sDrvn4uuPUnO-62" value="read current value [mV/V]" style="edgeLabel;html=1;align=center;verticalAlign=middle;resizable=0;points=[];labelBackgroundColor=none;" parent="rYEl8N98sDrvn4uuPUnO-61" vertex="1" connectable="0">
          <mxGeometry x="-0.373" y="-1" relative="1" as="geometry">
            <mxPoint x="33" y="-11" as="offset" />
          </mxGeometry>
        </mxCell>
        <mxCell id="rYEl8N98sDrvn4uuPUnO-63" value="" style="endArrow=none;html=1;rounded=0;" parent="rYEl8N98sDrvn4uuPUnO-87" target="rYEl8N98sDrvn4uuPUnO-64" edge="1">
          <mxGeometry width="50" height="50" relative="1" as="geometry">
            <mxPoint x="492.5" y="500" as="sourcePoint" />
            <mxPoint x="492.21000000000004" y="120" as="targetPoint" />
          </mxGeometry>
        </mxCell>
        <mxCell id="rYEl8N98sDrvn4uuPUnO-64" value="" style="rounded=0;whiteSpace=wrap;html=1;" parent="rYEl8N98sDrvn4uuPUnO-87" vertex="1">
          <mxGeometry x="482.5" y="360" width="20" height="30" as="geometry" />
        </mxCell>
        <mxCell id="rYEl8N98sDrvn4uuPUnO-65" value="" style="endArrow=classic;html=1;rounded=0;exitX=0;exitY=1;exitDx=0;exitDy=0;" parent="rYEl8N98sDrvn4uuPUnO-87" source="rYEl8N98sDrvn4uuPUnO-64" edge="1">
          <mxGeometry width="50" height="50" relative="1" as="geometry">
            <mxPoint x="462.5" y="390" as="sourcePoint" />
            <mxPoint x="302.5" y="390" as="targetPoint" />
          </mxGeometry>
        </mxCell>
        <mxCell id="rYEl8N98sDrvn4uuPUnO-66" value="current value [mV/V]" style="edgeLabel;html=1;align=center;verticalAlign=middle;resizable=0;points=[];labelBackgroundColor=none;" parent="rYEl8N98sDrvn4uuPUnO-65" vertex="1" connectable="0">
          <mxGeometry x="-0.373" y="-1" relative="1" as="geometry">
            <mxPoint x="-32" y="-9" as="offset" />
          </mxGeometry>
        </mxCell>
        <mxCell id="rYEl8N98sDrvn4uuPUnO-67" style="edgeStyle=orthogonalEdgeStyle;rounded=0;orthogonalLoop=1;jettySize=auto;html=1;exitX=1;exitY=0.5;exitDx=0;exitDy=0;" parent="rYEl8N98sDrvn4uuPUnO-87" edge="1">
          <mxGeometry relative="1" as="geometry">
            <mxPoint x="302.5" y="410" as="sourcePoint" />
            <mxPoint x="302.5" y="430" as="targetPoint" />
            <Array as="points">
              <mxPoint x="422.5" y="410" />
              <mxPoint x="422.5" y="430" />
              <mxPoint x="302.5" y="430" />
            </Array>
          </mxGeometry>
        </mxCell>
        <mxCell id="rYEl8N98sDrvn4uuPUnO-68" value="scale [mV/V] -&amp;gt; [kN]" style="edgeLabel;html=1;align=center;verticalAlign=middle;resizable=0;points=[];labelBackgroundColor=none;" parent="rYEl8N98sDrvn4uuPUnO-67" vertex="1" connectable="0">
          <mxGeometry x="-0.6708" y="-2" relative="1" as="geometry">
            <mxPoint x="17" y="-12" as="offset" />
          </mxGeometry>
        </mxCell>
        <mxCell id="rYEl8N98sDrvn4uuPUnO-69" value="" style="endArrow=none;html=1;rounded=0;" parent="rYEl8N98sDrvn4uuPUnO-87" target="rYEl8N98sDrvn4uuPUnO-70" edge="1">
          <mxGeometry width="50" height="50" relative="1" as="geometry">
            <mxPoint x="92.5" y="480" as="sourcePoint" />
            <mxPoint x="92.21000000000004" y="120" as="targetPoint" />
          </mxGeometry>
        </mxCell>
        <mxCell id="rYEl8N98sDrvn4uuPUnO-70" value="" style="rounded=0;whiteSpace=wrap;html=1;" parent="rYEl8N98sDrvn4uuPUnO-87" vertex="1">
          <mxGeometry x="82.5" y="460" width="20" height="20" as="geometry" />
        </mxCell>
        <mxCell id="rYEl8N98sDrvn4uuPUnO-71" value="" style="endArrow=classic;html=1;rounded=0;exitX=0;exitY=1;exitDx=0;exitDy=0;" parent="rYEl8N98sDrvn4uuPUnO-87" edge="1">
          <mxGeometry width="50" height="50" relative="1" as="geometry">
            <mxPoint x="282.5" y="460" as="sourcePoint" />
            <mxPoint x="102.5" y="460" as="targetPoint" />
          </mxGeometry>
        </mxCell>
        <mxCell id="rYEl8N98sDrvn4uuPUnO-72" value="notify" style="edgeLabel;html=1;align=center;verticalAlign=middle;resizable=0;points=[];labelBackgroundColor=none;" parent="rYEl8N98sDrvn4uuPUnO-71" vertex="1" connectable="0">
          <mxGeometry x="-0.373" y="-1" relative="1" as="geometry">
            <mxPoint x="-32" y="-9" as="offset" />
          </mxGeometry>
        </mxCell>
        <mxCell id="rYEl8N98sDrvn4uuPUnO-74" value="" style="endArrow=none;html=1;rounded=0;" parent="rYEl8N98sDrvn4uuPUnO-87" target="rYEl8N98sDrvn4uuPUnO-73" edge="1">
          <mxGeometry width="50" height="50" relative="1" as="geometry">
            <mxPoint x="292.5" y="500" as="sourcePoint" />
            <mxPoint x="292.5" y="140" as="targetPoint" />
          </mxGeometry>
        </mxCell>
        <mxCell id="rYEl8N98sDrvn4uuPUnO-73" value="" style="rounded=0;whiteSpace=wrap;html=1;" parent="rYEl8N98sDrvn4uuPUnO-87" vertex="1">
          <mxGeometry x="282.5" y="170" width="20" height="150" as="geometry" />
        </mxCell>
        <mxCell id="rYEl8N98sDrvn4uuPUnO-77" value="" style="endArrow=classic;html=1;rounded=0;exitX=1;exitY=0.5;exitDx=0;exitDy=0;entryX=0;entryY=0;entryDx=0;entryDy=0;" parent="rYEl8N98sDrvn4uuPUnO-87" edge="1">
          <mxGeometry width="50" height="50" relative="1" as="geometry">
            <mxPoint x="102.5" y="170" as="sourcePoint" />
            <mxPoint x="282.5" y="170" as="targetPoint" />
          </mxGeometry>
        </mxCell>
        <mxCell id="rYEl8N98sDrvn4uuPUnO-78" value="trigger recalc scalefactors" style="edgeLabel;html=1;align=center;verticalAlign=middle;resizable=0;points=[];labelBackgroundColor=none;" parent="rYEl8N98sDrvn4uuPUnO-77" vertex="1" connectable="0">
          <mxGeometry x="-0.373" y="-1" relative="1" as="geometry">
            <mxPoint x="33" y="-11" as="offset" />
          </mxGeometry>
        </mxCell>
        <mxCell id="rYEl8N98sDrvn4uuPUnO-81" value="" style="endArrow=classic;html=1;rounded=0;exitX=1;exitY=0.5;exitDx=0;exitDy=0;entryX=0;entryY=0;entryDx=0;entryDy=0;" parent="rYEl8N98sDrvn4uuPUnO-87" edge="1">
          <mxGeometry width="50" height="50" relative="1" as="geometry">
            <mxPoint x="302.5" y="189.66999999999996" as="sourcePoint" />
            <mxPoint x="482.5" y="189.66999999999996" as="targetPoint" />
          </mxGeometry>
        </mxCell>
        <mxCell id="rYEl8N98sDrvn4uuPUnO-82" value="request calibration data" style="edgeLabel;html=1;align=center;verticalAlign=middle;resizable=0;points=[];labelBackgroundColor=none;" parent="rYEl8N98sDrvn4uuPUnO-81" vertex="1" connectable="0">
          <mxGeometry x="-0.373" y="-1" relative="1" as="geometry">
            <mxPoint x="33" y="-11" as="offset" />
          </mxGeometry>
        </mxCell>
        <mxCell id="rYEl8N98sDrvn4uuPUnO-83" style="edgeStyle=orthogonalEdgeStyle;rounded=0;orthogonalLoop=1;jettySize=auto;html=1;exitX=1;exitY=0.5;exitDx=0;exitDy=0;" parent="rYEl8N98sDrvn4uuPUnO-87" edge="1">
          <mxGeometry relative="1" as="geometry">
            <mxPoint x="302.5" y="300" as="sourcePoint" />
            <mxPoint x="302.5" y="320" as="targetPoint" />
            <Array as="points">
              <mxPoint x="422.5" y="300" />
              <mxPoint x="422.5" y="320" />
              <mxPoint x="302.5" y="320" />
            </Array>
          </mxGeometry>
        </mxCell>
        <mxCell id="rYEl8N98sDrvn4uuPUnO-84" value="update GATT server" style="edgeLabel;html=1;align=center;verticalAlign=middle;resizable=0;points=[];labelBackgroundColor=none;" parent="rYEl8N98sDrvn4uuPUnO-83" vertex="1" connectable="0">
          <mxGeometry x="-0.6708" y="-2" relative="1" as="geometry">
            <mxPoint x="17" y="-12" as="offset" />
          </mxGeometry>
        </mxCell>
        <mxCell id="rYEl8N98sDrvn4uuPUnO-60" value="" style="rounded=0;whiteSpace=wrap;html=1;" parent="rYEl8N98sDrvn4uuPUnO-87" vertex="1">
          <mxGeometry x="282.5" y="360" width="20" height="100" as="geometry" />
        </mxCell>
        <mxCell id="rYEl8N98sDrvn4uuPUnO-85" value="User with ble app" style="shape=umlActor;verticalLabelPosition=bottom;verticalAlign=top;outlineConnect=0;html=1;spacingBottom=0;spacingTop=-100;" parent="rYEl8N98sDrvn4uuPUnO-87" vertex="1">
          <mxGeometry x="72.5" y="40" width="40" height="80" as="geometry" />
        </mxCell>
      </root>
    </mxGraphModel>
  </diagram>
</mxfile>
